<svg viewBox="0 0 356 42" xmlns="http://www.w3.org/2000/svg" data-logo="logo">
        <g transform="translate(0, 1) rotate(0)" id="logogram" style="opacity: 1;"><path fill="#000000" d="M16.6584 40H15.3817C12.0653 40 10.07 39.9994 8.54581 39.7159L17.3668 28.0344L16.6584 40Z"></path><path fill="#000" d="M31.2482 39.7514C29.7502 39.9988 27.7875 40 24.6183 40H23.109L22.397 28.0309L31.2482 39.7514Z"></path><path fill="#000" d="M39.6715 31.6708C39.6071 31.9773 39.5313 32.2655 39.4389 32.5426C38.8337 34.3567 37.7712 35.9522 36.3867 37.1982L26.44 26.044L39.6715 31.6708Z"></path><path fill="#000" d="M3.48544 37.0792C2.16397 35.8511 1.14739 34.3 0.56108 32.5426C0.459551 32.2382 0.375253 31.921 0.307173 31.5803L13.3239 26.0458L3.48544 37.0792Z"></path><path fill="#000" d="M40 24.6183C40 25.7428 39.9968 26.7154 39.9858 27.5692L28.1729 23.006H40V24.6183Z"></path><path fill="#000" d="M11.5962 23.006L0.0106534 27.4805C0.000706106 26.6481 0 25.704 0 24.6183V23.006H11.5962Z"></path><path fill="#000" d="M24.6183 0C28.7807 0 30.862 0.000553673 32.5426 0.56108C35.7979 1.64713 38.3529 4.20208 39.4389 7.45739C39.9994 9.13798 40 11.2193 40 15.3817V20.016H27.5089L36.5181 16.1861L33.8459 14.4123L25.1048 17.7876L29.2081 12.358L26.2571 11.5501L21.7259 16.6282L21.3885 10.9091H18.3825L18.0398 16.6282L13.5121 11.5501L10.5629 12.358L14.6609 17.7859L5.92507 14.4123L3.25284 16.1861L12.2603 20.016H0V15.3817C0 11.2193 0.000553673 9.13798 0.56108 7.45739C1.64713 4.20208 4.20208 1.64713 7.45739 0.56108C9.13798 0.000553673 11.2193 0 15.3817 0H24.6183Z"></path></g>
        <g transform="translate(46, 1.5)" id="logotype" style="opacity: 1;"><path d="M20 32L15.10 32Q13.39 32 12.32 30.93Q11.25 29.86 11.25 28.08L11.25 28.08L11.25 18.28L6.91 18.28L6.91 14.64L11.25 14.64L11.25 9.25L15.66 9.25L15.66 14.64L20.42 14.64L20.42 18.28L15.66 18.28L15.66 27.31Q15.66 28.36 16.64 28.36L16.64 28.36L20 28.36L20 32ZM29.80 32.49L29.80 32.49Q27.95 32.49 26.48 31.84Q25.01 31.20 24.15 29.95Q23.29 28.71 23.29 26.93L23.29 26.93Q23.29 25.14 24.15 23.93Q25.01 22.73 26.53 22.11Q28.05 21.50 30.01 21.50L30.01 21.50L34.77 21.50L34.77 20.52Q34.77 19.29 34 18.51Q33.23 17.72 31.55 17.72L31.55 17.72Q29.91 17.72 29.10 18.47Q28.30 19.23 28.05 20.41L28.05 20.41L23.99 19.05Q24.41 17.72 25.34 16.62Q26.27 15.51 27.82 14.83Q29.38 14.15 31.62 14.15L31.62 14.15Q35.05 14.15 37.05 15.86Q39.04 17.58 39.04 20.84L39.04 20.84L39.04 27.31Q39.04 28.36 40.02 28.36L40.02 28.36L41.42 28.36L41.42 32L38.48 32Q37.19 32 36.34 31.37Q35.51 30.74 35.51 29.69L35.51 29.69L35.51 29.66L34.84 29.66Q34.70 30.07 34.21 30.76Q33.72 31.44 32.67 31.96Q31.62 32.49 29.80 32.49ZM30.57 28.92L30.57 28.92Q32.43 28.92 33.60 27.89Q34.77 26.86 34.77 25.14L34.77 25.14L34.77 24.79L30.33 24.79Q29.10 24.79 28.40 25.31Q27.70 25.84 27.70 26.79L27.70 26.79Q27.70 27.73 28.44 28.32Q29.17 28.92 30.57 28.92ZM49.05 39L44.64 39L44.64 14.64L48.98 14.64L48.98 16.74L49.61 16.74Q50.20 15.72 51.46 14.94Q52.72 14.15 55.07 14.15L55.07 14.15Q57.17 14.15 58.95 15.18Q60.74 16.21 61.83 18.21Q62.91 20.20 62.91 23.04L62.91 23.04L62.91 23.60Q62.91 26.43 61.83 28.43Q60.74 30.43 58.95 31.46Q57.17 32.49 55.07 32.49L55.07 32.49Q53.49 32.49 52.43 32.12Q51.36 31.75 50.71 31.18Q50.06 30.60 49.68 30.00L49.68 30.00L49.05 30.00L49.05 39ZM53.74 28.64L53.74 28.64Q55.80 28.64 57.15 27.33Q58.50 26.02 58.50 23.49L58.50 23.49L58.50 23.14Q58.50 20.63 57.13 19.31Q55.77 18 53.74 18L53.74 18Q51.71 18 50.34 19.31Q48.98 20.63 48.98 23.14L48.98 23.14L48.98 23.49Q48.98 26.02 50.34 27.33Q51.71 28.64 53.74 28.64ZM77.26 25.07L66.90 25.07L66.90 21.08L77.26 21.08L77.26 25.07ZM92.87 32L87.97 32Q86.26 32 85.19 30.93Q84.12 29.86 84.12 28.08L84.12 28.08L84.12 18.28L79.78 18.28L79.78 14.64L84.12 14.64L84.12 9.25L88.53 9.25L88.53 14.64L93.29 14.64L93.29 18.28L88.53 18.28L88.53 27.31Q88.53 28.36 89.51 28.36L89.51 28.36L92.87 28.36L92.87 32ZM101.69 32L97.28 32L97.28 7.50L101.69 7.50L101.69 16.77L102.32 16.77Q102.60 16.21 103.20 15.65Q103.79 15.09 104.79 14.73Q105.79 14.36 107.33 14.36L107.33 14.36Q109.36 14.36 110.88 15.29Q112.40 16.21 113.24 17.84Q114.08 19.47 114.08 21.64L114.08 21.64L114.08 32L109.67 32L109.67 21.99Q109.67 20.03 108.71 19.05Q107.75 18.07 105.96 18.07L105.96 18.07Q103.93 18.07 102.81 19.42Q101.69 20.77 101.69 23.18L101.69 23.18L101.69 32ZM126.75 32.49L126.75 32.49Q124.16 32.49 122.18 31.39Q120.21 30.29 119.10 28.27Q118.00 26.26 118.00 23.53L118.00 23.53L118.00 23.11Q118.00 20.38 119.09 18.37Q120.17 16.35 122.13 15.25Q124.09 14.15 126.68 14.15L126.68 14.15Q129.24 14.15 131.13 15.29Q133.02 16.42 134.07 18.44Q135.12 20.45 135.12 23.11L135.12 23.11L135.12 24.61L122.48 24.61Q122.55 26.40 123.81 27.52Q125.07 28.64 126.89 28.64L126.89 28.64Q128.75 28.64 129.62 27.84Q130.50 27.03 130.95 26.05L130.95 26.05L134.56 27.94Q134.07 28.85 133.14 29.92Q132.21 30.98 130.67 31.74Q129.13 32.49 126.75 32.49ZM122.52 21.32L122.52 21.32L130.64 21.32Q130.50 19.82 129.43 18.91Q128.36 18 126.65 18L126.65 18Q124.86 18 123.81 18.91Q122.76 19.82 122.52 21.32ZM149.33 25.07L138.97 25.07L138.97 21.08L149.33 21.08L149.33 25.07ZM158.57 39L154.16 39L154.16 14.64L158.50 14.64L158.50 16.74L159.13 16.74Q159.72 15.72 160.98 14.94Q162.24 14.15 164.59 14.15L164.59 14.15Q166.69 14.15 168.47 15.18Q170.26 16.21 171.34 18.21Q172.43 20.20 172.43 23.04L172.43 23.04L172.43 23.60Q172.43 26.43 171.34 28.43Q170.26 30.43 168.47 31.46Q166.69 32.49 164.59 32.49L164.59 32.49Q163.01 32.49 161.94 32.12Q160.88 31.75 160.23 31.18Q159.58 30.60 159.20 30.00L159.20 30.00L158.57 30.00L158.57 39ZM163.26 28.64L163.26 28.64Q165.32 28.64 166.67 27.33Q168.02 26.02 168.02 23.49L168.02 23.49L168.02 23.14Q168.02 20.63 166.65 19.31Q165.29 18 163.26 18L163.26 18Q161.23 18 159.86 19.31Q158.50 20.63 158.50 23.14L158.50 23.14L158.50 23.49Q158.50 26.02 159.86 27.33Q161.23 28.64 163.26 28.64ZM184.75 32.49L184.75 32.49Q182.16 32.49 180.09 31.44Q178.03 30.39 176.84 28.39Q175.65 26.40 175.65 23.60L175.65 23.60L175.65 23.04Q175.65 20.24 176.84 18.24Q178.03 16.25 180.09 15.20Q182.16 14.15 184.75 14.15L184.75 14.15Q187.34 14.15 189.40 15.20Q191.47 16.25 192.66 18.24Q193.85 20.24 193.85 23.04L193.85 23.04L193.85 23.60Q193.85 26.40 192.66 28.39Q191.47 30.39 189.40 31.44Q187.34 32.49 184.75 32.49ZM184.75 28.57L184.75 28.57Q186.78 28.57 188.11 27.26Q189.44 25.95 189.44 23.49L189.44 23.49L189.44 23.14Q189.44 20.70 188.12 19.38Q186.81 18.07 184.75 18.07L184.75 18.07Q182.72 18.07 181.39 19.38Q180.06 20.70 180.06 23.14L180.06 23.14L180.06 23.49Q180.06 25.95 181.39 27.26Q182.72 28.57 184.75 28.57ZM205.12 32.49L205.12 32.49Q201.72 32.49 199.55 31.02Q197.38 29.55 196.93 26.82L196.93 26.82L200.99 25.77Q201.23 26.99 201.81 27.70Q202.39 28.39 203.24 28.69Q204.10 28.99 205.12 28.99L205.12 28.99Q206.66 28.99 207.39 28.45Q208.13 27.91 208.13 27.10L208.13 27.10Q208.13 26.29 207.43 25.86Q206.73 25.42 205.19 25.14L205.19 25.14L204.21 24.96Q202.39 24.61 200.88 24.00Q199.38 23.39 198.47 22.30Q197.56 21.22 197.56 19.50L197.56 19.50Q197.56 16.91 199.45 15.53Q201.34 14.15 204.42 14.15L204.42 14.15Q207.32 14.15 209.25 15.44Q211.17 16.74 211.77 18.84L211.77 18.84L207.67 20.10Q207.39 18.77 206.53 18.21Q205.68 17.65 204.42 17.65L204.42 17.65Q203.16 17.65 202.49 18.09Q201.83 18.52 201.83 19.29L201.83 19.29Q201.83 20.13 202.53 20.54Q203.23 20.94 204.42 21.15L204.42 21.15L205.40 21.32Q207.36 21.67 208.95 22.25Q210.54 22.83 211.47 23.90Q212.40 24.96 212.40 26.79L212.40 26.79Q212.40 29.52 210.42 31.00Q208.44 32.49 205.12 32.49ZM227.45 32L222.55 32Q220.83 32 219.76 30.93Q218.70 29.86 218.70 28.08L218.70 28.08L218.70 18.28L214.36 18.28L214.36 14.64L218.70 14.64L218.70 9.25L223.11 9.25L223.11 14.64L227.87 14.64L227.87 18.28L223.11 18.28L223.11 27.31Q223.11 28.36 224.09 28.36L224.09 28.36L227.45 28.36L227.45 32ZM234.66 32.49L234.66 32.49Q233.22 32.49 232.26 31.56Q231.30 30.63 231.30 29.16L231.30 29.16Q231.30 27.70 232.26 26.77Q233.22 25.84 234.66 25.84L234.66 25.84Q236.06 25.84 237.00 26.77Q237.95 27.70 237.95 29.16L237.95 29.16Q237.95 30.63 237.00 31.56Q236.06 32.49 234.66 32.49ZM250.23 32.49L250.23 32.49Q247.71 32.49 245.66 31.44Q243.62 30.39 242.43 28.39Q241.24 26.40 241.24 23.56L241.24 23.56L241.24 23.07Q241.24 20.24 242.43 18.24Q243.62 16.25 245.66 15.20Q247.71 14.15 250.23 14.15L250.23 14.15Q252.72 14.15 254.50 15.02Q256.29 15.90 257.39 17.42Q258.49 18.95 258.84 20.87L258.84 20.87L254.57 21.78Q254.43 20.73 253.94 19.89Q253.45 19.05 252.56 18.56Q251.67 18.07 250.34 18.07L250.34 18.07Q249.01 18.07 247.94 18.65Q246.87 19.23 246.26 20.36Q245.65 21.50 245.65 23.14L245.65 23.14L245.65 23.49Q245.65 25.14 246.26 26.28Q246.87 27.41 247.94 27.99Q249.01 28.57 250.34 28.57L250.34 28.57Q252.33 28.57 253.36 27.54Q254.40 26.50 254.68 24.82L254.68 24.82L258.95 25.84Q258.49 27.70 257.39 29.22Q256.29 30.74 254.50 31.61Q252.72 32.49 250.23 32.49ZM270.85 32.49L270.85 32.49Q268.26 32.49 266.19 31.44Q264.13 30.39 262.94 28.39Q261.75 26.40 261.75 23.60L261.75 23.60L261.75 23.04Q261.75 20.24 262.94 18.24Q264.13 16.25 266.19 15.20Q268.26 14.15 270.85 14.15L270.85 14.15Q273.44 14.15 275.50 15.20Q277.57 16.25 278.76 18.24Q279.95 20.24 279.95 23.04L279.95 23.04L279.95 23.60Q279.95 26.40 278.76 28.39Q277.57 30.39 275.50 31.44Q273.44 32.49 270.85 32.49ZM270.85 28.57L270.85 28.57Q272.88 28.57 274.21 27.26Q275.54 25.95 275.54 23.49L275.54 23.49L275.54 23.14Q275.54 20.70 274.22 19.38Q272.91 18.07 270.85 18.07L270.85 18.07Q268.82 18.07 267.49 19.38Q266.16 20.70 266.16 23.14L266.16 23.14L266.16 23.49Q266.16 25.95 267.49 27.26Q268.82 28.57 270.85 28.57ZM288.42 32L284.01 32L284.01 14.64L288.35 14.64L288.35 16.53L288.98 16.53Q289.43 15.65 290.48 15.01Q291.53 14.36 293.25 14.36L293.25 14.36Q295.10 14.36 296.22 15.08Q297.34 15.79 297.94 16.95L297.94 16.95L298.57 16.95Q299.16 15.83 300.25 15.09Q301.33 14.36 303.33 14.36L303.33 14.36Q304.94 14.36 306.25 15.04Q307.56 15.72 308.35 17.11Q309.14 18.49 309.14 20.59L309.14 20.59L309.14 32L304.73 32L304.73 20.91Q304.73 19.47 303.99 18.75Q303.26 18.03 301.93 18.03L301.93 18.03Q300.42 18.03 299.60 19.00Q298.78 19.96 298.78 21.74L298.78 21.74L298.78 32L294.37 32L294.37 20.91Q294.37 19.47 293.63 18.75Q292.90 18.03 291.57 18.03L291.57 18.03Q290.06 18.03 289.24 19.00Q288.42 19.96 288.42 21.74L288.42 21.74L288.42 32Z" fill="#111111"></path></g>

      </svg>